<svg width="150" height="150" viewBox="0 0 150 150" fill="none" xmlns="http://www.w3.org/2000/svg">
<g clip-path="url(#clip0_205_709)">
<path d="M0 75.0012C0 105.713 18.4676 132.096 44.8939 143.696C44.683 138.459 44.8564 132.172 46.1994 126.473C47.6414 120.385 55.8498 85.6055 55.8498 85.6055C55.8498 85.6055 53.4539 80.8166 53.4539 73.7391C53.4539 62.6244 59.8957 54.3234 67.9184 54.3234C74.7404 54.3234 78.0363 59.4475 78.0363 65.5834C78.0363 72.4412 73.6623 82.6992 71.4129 92.2002C69.5338 100.156 75.4019 106.645 83.2506 106.645C97.4607 106.645 107.031 88.3939 107.031 66.7693C107.031 50.3314 95.9602 38.0279 75.8232 38.0279C53.0725 38.0279 38.8992 54.9943 38.8992 73.9459C38.8992 80.4803 40.8258 85.0881 43.8434 88.6564C45.2309 90.2953 45.4236 90.9545 44.9215 92.8365C44.5617 94.2164 43.7355 97.5387 43.3934 98.8553C42.8941 100.755 41.3549 101.434 39.6381 100.733C29.1592 96.4547 24.2789 84.9791 24.2789 72.0791C24.2789 50.7738 42.2473 25.227 77.8816 25.227C106.516 25.227 125.363 45.948 125.363 68.1908C125.363 97.6125 109.006 119.593 84.8947 119.593C76.7977 119.593 69.1811 115.216 66.5719 110.244C66.5719 110.244 62.2178 127.525 61.2955 130.862C59.7053 136.644 56.5928 142.424 53.7469 146.929C60.4922 148.92 67.6178 150.004 75.0029 150.004C116.419 150.004 150.001 116.425 150.001 75.0012C150.001 33.5795 116.419 0 75.0029 0C33.5824 0 0 33.5795 0 75.0012Z" fill="#CB1F27"/>
</g>
<defs>
<clipPath id="clip0_205_709">
<rect width="150" height="150" fill="white"/>
</clipPath>
</defs>
</svg>
