<svg width="36" height="35" viewBox="0 0 36 35" fill="none" xmlns="http://www.w3.org/2000/svg">
<g clip-path="url(#clip0_209_2933)">
<path d="M6.375 0H29.625C33.15 0 36 2.84188 36 6.35684V28.6432C36 32.1581 33.15 35 29.625 35H6.375C2.85 35 0 32.1581 0 28.6432V6.35684C0 2.84188 2.85 0 6.375 0Z" fill="#330000"/>
<path d="M17.4 20.9403H11.82L10.68 24.4552C10.65 24.5898 10.53 24.6796 10.395 24.6646H7.57499C7.40999 24.6646 7.36499 24.5749 7.40999 24.3954L12.24 10.53C12.285 10.3804 12.33 10.2159 12.39 10.0364C12.45 9.72231 12.48 9.39325 12.48 9.06419C12.465 8.9894 12.525 8.91462 12.6 8.89966H12.645H16.485C16.605 8.89966 16.665 8.94453 16.68 9.01932L22.155 24.4253C22.2 24.5898 22.155 24.6646 22.005 24.6646H18.87C18.765 24.6796 18.66 24.6048 18.63 24.5001L17.4 20.9403ZM12.69 17.9039H16.5C16.41 17.5898 16.29 17.2159 16.155 16.827C16.02 16.4232 15.885 15.9894 15.75 15.5407C15.6 15.077 15.465 14.6283 15.315 14.1646C15.165 13.7009 15.03 13.2672 14.91 12.8334C14.79 12.4146 14.685 12.0257 14.58 11.6668H14.55C14.415 12.3099 14.25 12.9531 14.04 13.5962C13.815 14.3142 13.59 15.0621 13.35 15.8099C13.14 16.5727 12.915 17.2757 12.69 17.9039Z" fill="#FF9A00"/>
<path d="M25.4997 11.5172C25.0047 11.5322 24.5247 11.3377 24.1647 10.9937C23.8197 10.6198 23.6397 10.1262 23.6547 9.61764C23.6397 9.10909 23.8347 8.63046 24.1947 8.28644C24.5547 7.94243 25.0347 7.76294 25.5297 7.76294C26.1147 7.76294 26.5647 7.94243 26.8947 8.28644C27.2247 8.64542 27.4047 9.12405 27.3897 9.61764C27.4047 10.1262 27.2247 10.6198 26.8647 10.9937C26.5197 11.3527 26.0097 11.5471 25.4997 11.5172ZM23.8197 24.5001V12.983C23.8197 12.8335 23.8797 12.7736 24.0147 12.7736H26.9847C27.1197 12.7736 27.1797 12.8484 27.1797 12.983V24.5001C27.1797 24.6646 27.1197 24.7394 26.9847 24.7394H24.0447C23.8947 24.7394 23.8197 24.6497 23.8197 24.5001Z" fill="#FF9A00"/>
</g>
<defs>
<clipPath id="clip0_209_2933">
<rect width="36" height="35" fill="white"/>
</clipPath>
</defs>
</svg>
