<?xml version="1.0" encoding="UTF-8"?>
<svg id="_레이어_1" xmlns="http://www.w3.org/2000/svg" version="1.1" viewBox="0 0 739.8 118.6">
  <!-- Generator: Adobe Illustrator 29.3.0, SVG Export Plug-In . SVG Version: 2.1.0 Build 146)  -->
  <defs>
    <style>
      .st0 {
        fill: #fff;
      }
    </style>
  </defs>
  <g>
    <path class="st0" d="M45,7.2l12.1,34,12.7-34h32.1l13.3,34,11.4-34h45.1l-35.1,104.3h-34l-16.5-41.3-15.3,41.3h-34L0,7.2h45Z"/>
    <path class="st0" d="M217,7.2l12.1,34,12.7-34h32.1l13.3,34,11.4-34h45.1l-35.1,104.3h-34l-16.5-41.3-15.3,41.3h-34L172,7.2h45Z"/>
    <path class="st0" d="M395.4,7.2v104.3h-46.1V7.2h46.1Z"/>
    <path class="st0" d="M495.3,7.2v46.2h-23.2v58.1h-46.2v-58.1h-23.2V7.2h92.7,0Z"/>
  </g>
  <path class="st0" d="M736.7,118.6c-23.6,0-40.8-3.6-51.5-10.9-10.7,7.3-27.9,10.9-51.5,10.9l-3.1-20.3c10.7,0,19.1-.7,25.3-2s10.4-4.3,12.8-8.7h-16.4v-12.5h-23.2v-18.7h75.7v18.7h-23.1v5.3h18.3c.4,5.3,2.3,9.3,5.8,11.9s7.8,4.3,13.3,5c5.4.7,12.4,1.1,20.9,1.1l-3.1,20.3h0ZM656.6,49.8c-7.3,0-13.2-2.2-17.7-6.6s-6.8-10.2-6.8-17.4,2.3-13,6.8-17.4c4.5-4.4,10.4-6.6,17.7-6.6h19.7c7.3,0,13.2,2.2,17.7,6.6s6.8,10.2,6.8,17.4-2.3,13-6.8,17.4c-4.5,4.4-10.4,6.6-17.7,6.6h-19.7ZM662.9,22.8c-.8,0-1.5.3-2.1.9s-.9,1.3-.9,2.1.3,1.5.9,2.1,1.3.9,2.1.9h7.2c.8,0,1.5-.3,2.1-.9.6-.6.9-1.3.9-2.1s-.3-1.5-.9-2.1c-.6-.6-1.3-.9-2.1-.9h-7.2ZM738.7,0v80.4h-29.3V0h29.3Z"/>
  <path class="st0" d="M596.9,48.2v23.2h-66.3v-23.2h66.3Z"/>
</svg>