<svg width="80" height="120" viewBox="0 0 80 120" fill="none" xmlns="http://www.w3.org/2000/svg">
<path d="M60 80C71.0457 80 80 71.0457 80 60C80 48.9543 71.0457 40 60 40C48.9543 40 40 48.9543 40 60C40 71.0457 48.9543 80 60 80Z" fill="#19BCFE"/>
<path fill-rule="evenodd" clip-rule="evenodd" d="M20 120C25.3043 120 30.3914 117.893 34.1421 114.142C37.8929 110.391 40 105.304 40 100V80H20C14.6957 80 9.60859 82.1071 5.85786 85.8579C2.10714 89.6086 0 94.6957 0 100C0 105.304 2.10714 110.391 5.85786 114.142C9.60859 117.893 14.6957 120 20 120Z" fill="#09CF83"/>
<path fill-rule="evenodd" clip-rule="evenodd" d="M20 80H40V40H20C14.6957 40 9.60859 42.1071 5.85786 45.8579C2.10714 49.6086 0 54.6957 0 60C0 65.3043 2.10714 70.3914 5.85786 74.1421C9.60859 77.8929 14.6957 80 20 80Z" fill="#A259FF"/>
<path fill-rule="evenodd" clip-rule="evenodd" d="M20 40H40V0H20C14.6957 0 9.60859 2.10714 5.85786 5.85786C2.10714 9.60859 0 14.6957 0 20C0 25.3043 2.10714 30.3914 5.85786 34.1421C9.60859 37.8929 14.6957 40 20 40Z" fill="#F24E1E"/>
<path fill-rule="evenodd" clip-rule="evenodd" d="M60 40H40V0H60C65.3043 0 70.3914 2.10714 74.1421 5.85786C77.8929 9.60859 80 14.6957 80 20C80 25.3043 77.8929 30.3914 74.1421 34.1421C70.3914 37.8929 65.3043 40 60 40Z" fill="#FF7262"/>
</svg>
