<svg width="36" height="35" viewBox="0 0 36 35" fill="none" xmlns="http://www.w3.org/2000/svg">
<g clip-path="url(#clip0_209_2726)">
<path d="M6.375 0H29.625C33.15 0 36 2.84188 36 6.35684V28.6432C36 32.1581 33.15 35 29.625 35H6.375C2.85 35 0 32.1581 0 28.6432V6.35684C0 2.84188 2.85 0 6.375 0Z" fill="#001E36"/>
<path d="M8.1001 24.545V9.15393C8.1001 9.04923 8.1451 8.9894 8.2501 8.9894C8.5051 8.9894 8.7451 8.9894 9.0901 8.97444C9.4501 8.95949 9.8251 8.95949 10.2301 8.94453C10.6351 8.92957 11.0701 8.92957 11.5351 8.91462C12.0001 8.89966 12.4501 8.89966 12.9001 8.89966C14.1301 8.89966 15.1501 9.04923 15.9901 9.36333C16.7401 9.61761 17.4301 10.0364 18.0001 10.5898C18.4801 11.0685 18.8551 11.6518 19.0951 12.295C19.3201 12.9232 19.4401 13.5663 19.4401 14.2394C19.4401 15.5257 19.1401 16.5877 18.5401 17.4253C17.9401 18.2629 17.1001 18.8911 16.1251 19.2501C15.1051 19.624 13.9801 19.7586 12.7501 19.7586C12.3901 19.7586 12.1501 19.7586 12.0001 19.7437C11.8501 19.7287 11.6401 19.7287 11.3551 19.7287V24.53C11.3701 24.6347 11.2951 24.7244 11.1901 24.7394C11.1751 24.7394 11.1601 24.7394 11.1301 24.7394H8.2801C8.1601 24.7394 8.1001 24.6796 8.1001 24.545ZM11.3701 11.8762V16.9018C11.5801 16.9168 11.7751 16.9317 11.9551 16.9317H12.7501C13.3351 16.9317 13.9201 16.842 14.4751 16.6625C14.9551 16.5279 15.3751 16.2437 15.7051 15.8697C16.0201 15.4958 16.1701 14.9873 16.1701 14.3291C16.1851 13.8655 16.0651 13.4018 15.8251 12.9979C15.5701 12.6091 15.2101 12.3099 14.7751 12.1454C14.2201 11.921 13.6201 11.8313 13.0051 11.8462C12.6151 11.8462 12.2701 11.8462 11.9851 11.8612C11.6851 11.8462 11.4751 11.8612 11.3701 11.8762Z" fill="#31A8FF"/>
<path d="M28.7999 15.9895C28.3499 15.7502 27.8699 15.5856 27.3599 15.4809C26.8049 15.3613 26.2499 15.2865 25.6799 15.2865C25.3799 15.2715 25.0649 15.3164 24.7799 15.3912C24.5849 15.4361 24.4199 15.5408 24.3149 15.6903C24.2399 15.81 24.1949 15.9596 24.1949 16.0942C24.1949 16.2288 24.2549 16.3634 24.3449 16.4831C24.4799 16.6476 24.6599 16.7822 24.8549 16.8869C25.1999 17.0664 25.5599 17.2309 25.9199 17.3805C26.7299 17.6497 27.5099 18.0237 28.2299 18.4724C28.7249 18.7865 29.1299 19.2053 29.4149 19.7138C29.6549 20.1925 29.7749 20.716 29.7599 21.2544C29.7749 21.9574 29.5649 22.6604 29.1749 23.2437C28.7549 23.842 28.1699 24.3057 27.4949 24.5749C26.7599 24.889 25.8599 25.0536 24.7799 25.0536C24.0899 25.0536 23.4149 24.9937 22.7399 24.8591C22.2149 24.7694 21.6899 24.6049 21.2099 24.3805C21.1049 24.3207 21.0299 24.216 21.0449 24.0963V21.4937C21.0449 21.4489 21.0599 21.389 21.1049 21.3591C21.1499 21.3292 21.1949 21.3442 21.2399 21.3741C21.8249 21.7181 22.4399 21.9574 23.0999 22.107C23.6699 22.2566 24.2699 22.3314 24.8699 22.3314C25.4399 22.3314 25.8449 22.2566 26.1149 22.122C26.3549 22.0172 26.5199 21.763 26.5199 21.4937C26.5199 21.2843 26.3999 21.0899 26.1599 20.8955C25.9199 20.701 25.4249 20.4767 24.6899 20.1925C23.9249 19.9232 23.2199 19.5643 22.5599 19.1155C22.0949 18.7865 21.7049 18.3527 21.4199 17.8442C21.1799 17.3655 21.0599 16.842 21.0749 16.3185C21.0749 15.6754 21.2549 15.0621 21.5849 14.5087C21.9599 13.9104 22.5149 13.4318 23.1599 13.1326C23.8649 12.7737 24.7499 12.6091 25.8149 12.6091C26.4299 12.6091 27.0599 12.654 27.6749 12.7437C28.1249 12.8036 28.5599 12.9232 28.9649 13.0878C29.0249 13.1027 29.0849 13.1625 29.1149 13.2224C29.1299 13.2822 29.1449 13.342 29.1449 13.4019V15.8399C29.1449 15.8997 29.1149 15.9596 29.0699 15.9895C28.9349 16.0194 28.8599 16.0194 28.7999 15.9895Z" fill="#31A8FF"/>
</g>
<defs>
<clipPath id="clip0_209_2726">
<rect width="36" height="35" fill="white"/>
</clipPath>
</defs>
</svg>
