<svg width="96" height="100" viewBox="0 0 96 100" fill="none" xmlns="http://www.w3.org/2000/svg">
<path fill-rule="evenodd" clip-rule="evenodd" d="M16.4569 17.442C19.5512 19.956 20.712 19.7642 26.5226 19.3764L81.3016 16.0872C82.4633 16.0872 81.4973 14.9282 81.1098 14.7356L72.0122 8.1587C70.269 6.80532 67.9466 5.25543 63.4954 5.64315L10.4529 9.51189C8.5184 9.70369 8.13205 10.6709 8.9024 11.4462L16.4569 17.442ZM19.7457 30.2082V87.8452C19.7457 90.9428 21.2937 92.1017 24.7776 91.9101L84.9797 88.4265C88.4654 88.2349 88.8537 86.1043 88.8537 83.588V26.3377C88.8537 23.8255 87.8873 22.4707 85.7535 22.6641L22.8418 26.3377C20.52 26.5328 19.7457 27.6942 19.7457 30.2082ZM79.177 33.3C79.563 35.0424 79.177 36.7833 77.4313 36.9792L74.5307 37.5572V80.1085C72.0122 81.4621 69.6898 82.2359 67.7546 82.2359C64.6562 82.2359 63.8802 81.2681 61.5594 78.3686L42.5857 48.5824V77.4013L48.5898 78.7561C48.5898 78.7561 48.5898 82.2359 43.7458 82.2359L30.392 83.0106C30.0041 82.2359 30.392 80.3034 31.7465 79.9163L35.2313 78.9504V40.8462L30.3929 40.4585C30.0048 38.716 30.9713 36.2036 33.6833 36.0087L48.0089 35.043L67.7546 65.217V38.5242L62.7202 37.9465C62.3338 35.8163 63.8802 34.2695 65.8162 34.0777L79.177 33.3ZM5.99932 4.28996L61.172 0.226864C67.9474 -0.35422 69.6906 0.0350611 73.9491 3.12837L91.5609 15.5069C94.4669 17.6355 95.4355 18.215 95.4355 20.5355V88.4265C95.4355 92.6814 93.8854 95.1977 88.4664 95.5827L24.3942 99.4518C20.3262 99.6458 18.3902 99.0661 16.2598 96.3566L3.2902 79.5292C0.966452 76.4316 0 74.1143 0 71.4032V11.0571C0 7.57762 1.55047 4.67513 5.99932 4.28996Z" fill="black"/>
</svg>
