<svg width="22" height="22" viewBox="0 0 22 22" fill="none" xmlns="http://www.w3.org/2000/svg">
<path d="M2.0052 8.01579C0.345476 9.67552 0.345476 12.3665 2.0052 14.0262C3.66496 15.686 6.35588 15.6859 8.01561 14.0262C6.35588 15.6859 6.35586 18.3769 8.01561 20.0366C9.67536 21.6964 12.3663 21.6963 14.026 20.0366C15.6858 18.3769 15.6858 15.686 14.026 14.0262C15.6858 15.686 18.3767 15.686 20.0364 14.0262C21.6962 12.3664 21.6962 9.67555 20.0364 8.01579C18.3767 6.35604 15.6858 6.35604 14.026 8.01579C15.6858 6.35604 15.6858 3.66514 14.026 2.00538C12.3663 0.345657 9.67536 0.345631 8.01561 2.00538C6.35586 3.66514 6.35588 6.35606 8.01561 8.01579C6.35588 6.35606 3.66496 6.35604 2.0052 8.01579Z" fill="#9D62BE"/>
</svg>
